# xmcd
#
# Track frame offsets:
#	150
#	15819
#	38891
#	52851
#	66656
#	85219
#	99890
#	116963
#	134754
#	152270
#	167806
#	188122
#	205498
#	219278
#	241015
#	261176
#	276253
#	291399
#	305836
#	323296
#	336561
#
# Disc length: 4683 seconds
#
# Revision: 0
# Processed by: cddbd v1.5.2PL0 Copyright (c) Steve Scherf et al.
# Submitted via: EZCDAudioConverter 2.4.0.1
#
DISCID=33124915
DTITLE=Various Artist - Sertanejos Românticos - Vol. 04
DYEAR=2005
DGENRE=Sertanejo
TTITLE0=Daniel -  Quando Acaba Uma Paixão
TTITLE1=Guilherme and Santiago - Quem Ama Uma Vez Não Deixa de Amar
TTITLE2=Bruno and Marrone Feat. Edson and Hudson - Amor de Ping-Pong (Ao Vivo)
TTITLE3=Rio Negro and Solimões - La Bella Luna
TTITLE4=Tannia Mara - Se Quiser
TTITLE5=Edson and Hudson - Foi Deus
TTITLE6=Zezé de Camargo and Luciano - Que Seja Bem Vinda
TTITLE7=Leonardo - Idas e Voltas
TTITLE8=Eduardo Costa - Me Apaixonei (A Primeira Vez Que Eu Te Vi)
TTITLE9=Rick and Renner - Ela é Demais
TTITLE10=Cleiton and Camargo - Quando Um Grande Amor Se Faz (Cantare È D'Amore)
TTITLE11=Gian and Giovani - O Que É Que A Gente Faz Por Amor
TTITLE12=João Paulo and Daniel - Só Da Você Na Minha Vida
TTITLE13=Chitãozinho and Xororó - Um Homem Quando Ama (Have You Ever Really Love
TTITLE13=d a Woman) 
TTITLE14=Sandro and Gustavo - Ímã
TTITLE15=Chrystian and Ralf - Sensível Demais (Acústico)
TTITLE16=João Pedro and Cristiano - Vida Cigana
TTITLE17=Roberta Miranda - Dois Em Um
TTITLE18=Milionário and José Rico - O Último Julgamento
TTITLE19=Gilberto and Gilmar - Só Mais Uma Vez
TTITLE20=Tonny Francis - Madrugada
EXTD=
EXTT0=
EXTT1=
EXTT2=
EXTT3=
EXTT4=
EXTT5=
EXTT6=
EXTT7=
EXTT8=
EXTT9=
EXTT10=
EXTT11=
EXTT12=
EXTT13=
EXTT14=
EXTT15=
EXTT16=
EXTT17=
EXTT18=
EXTT19=
EXTT20=
PLAYORDER=
